<?xml version="1.0" encoding="UTF-8"?>
<svg width="512pt" height="512pt" viewBox="-19 0 512 512" xmlns="http://www.w3.org/2000/svg">
<path d="m74.352 212.73-36.773-82.02 69.785-70.93h257.77l70.926 70.93-102.66 229.02-61.664 36.977 15.281 66.496-10.297 22.961c-3.5273 7.8555-9.1914 14.32-16.129 18.82-6.9414 4.4922-15.152 7.0195-23.77 7.0195-17.234 0-32.848-10.113-39.898-25.84l-67.57-150.74-7.6445-64.277z" fill="#ffe176"/>
<path d="m365.14 59.781h-257.77l-69.785 70.93 18.223 40.645c6.418-1.6133 12.508-4.4102 18.008-8.332 9.8945-7.0469 21.57-13.496 34.699-19.16 41.457-17.887 81.031-25.863 128.31-25.863 47.289 0 86.867 7.9766 128.32 25.859 13.133 5.6719 24.805 12.117 34.691 19.164 5.5039 3.9219 11.594 6.7188 18.016 8.3359l18.219-40.648z" fill="#ffc261"/>
<path d="m463.63 63.562c-15.34-10.406-32.648-19.797-51.75-28.039-53.852-23.242-107.77-35.523-175.06-35.523-67.293 0-121.21 12.281-175.06 35.516-19.105 8.25-36.41 17.648-51.75 28.059-8.957 6.0781-12.375 17.582-8.3125 27.613 6.6367 16.387 14.555 30.062 22.156 41.016 7.2695 10.465 21.648 13.043 32.023 5.6523 11.512-8.1992 25.137-15.789 40.391-22.371 42.434-18.309 85.824-28.391 140.55-28.391 54.734 0 98.133 10.082 140.57 28.391 15.242 6.582 28.867 14.168 40.375 22.367 10.379 7.3945 24.762 4.8164 32.027-5.6523 7.6055-10.953 15.52-24.629 22.156-41.02 4.0625-10.035 0.64453-21.539-8.3125-27.617z" fill="#fda756"/>
<g fill="#4b3f4e">
<path d="m158.49 61.84c-4.2656 0-7.7266-3.457-7.7266-7.7227v-14.18c0-4.2656 3.4609-7.7266 7.7266-7.7266 4.2695 0 7.7266 3.4609 7.7266 7.7266v14.18c0 4.2656-3.457 7.7227-7.7266 7.7227z"/>
<path d="m315.15 61.84c-4.2656 0-7.7266-3.457-7.7266-7.7227v-14.18c0-4.2656 3.4609-7.7266 7.7266-7.7266s7.7266 3.4609 7.7266 7.7266v14.18c0 4.2656-3.4609 7.7227-7.7266 7.7227z"/>
<path d="m236.82 69.41c-9.7656 0-18.93-4.082-25.152-11.195-2.8047-3.2148-2.4805-8.0938 0.73438-10.902s8.0938-2.4805 10.902 0.73047c3.2852 3.7578 8.2109 5.9141 13.516 5.9141 5.3047 0 10.23-2.1562 13.516-5.9141 2.8086-3.2109 7.6914-3.5391 10.902-0.73047 3.2148 2.8086 3.543 7.6875 0.73438 10.902-6.2188 7.1133-15.387 11.195-25.152 11.195z"/>
</g>
<path d="m169.06 274.08c0 27.316-16.305 50.832-39.707 61.34l-55-122.69c8.3945-3.7695 17.699-5.8633 27.5-5.8633 37.117 0 67.207 30.086 67.207 67.215z" fill="#f55d67"/>
<path d="m333.4 359.73-46.383 103.48c-3.1758 0.46484-6.4336 0.70703-9.7383 0.70703-37.117 0-67.207-30.09-67.207-67.207s30.09-67.207 67.207-67.207c23.453 0 44.105 12.016 56.121 30.23z" fill="#f55d67"/>
<path d="m337.07 206.35c0 37.121-30.09 67.211-67.211 67.211s-67.211-30.09-67.211-67.211c0-37.117 30.09-67.211 67.211-67.211s67.211 30.094 67.211 67.211z" fill="#ff3d5d"/>
</svg>
